<svg version="1.1" viewBox="0.0 0.0 835.6981627296587 157.63517060367454" fill="none" stroke="none" stroke-linecap="square" stroke-miterlimit="10" xmlns:xlink="http://www.w3.org/1999/xlink" xmlns="http://www.w3.org/2000/svg">
<defs>
  <mask id="crossbar-mask">
    <!-- Show everything -->
    <rect x="0" y="0" width="836" height="158" fill="white"/>
    <!-- Hide tom t crossbar LEFT of stem -->
    <rect x="5.7" y="41.493438" width="19.103534" height="25" fill="black"/>
    <!-- Hide tom t crossbar RIGHT of stem -->
    <rect x="39.353714" y="41.493438" width="25.396286000000003" height="25" fill="black"/>
    <!-- Hide quest t crossbar LEFT of stem -->
    <rect x="764.5" y="41.493438" width="25.35943999999995" height="25" fill="black"/>
    <!-- Hide quest t crossbar RIGHT of stem -->
    <rect x="804.41065" y="41.493438" width="23.799350000000004" height="25" fill="black"/>
    <!-- Hide Q tail - only ABOVE the bottom bar -->
    <rect x="469.84662" y="133.99509" width="25.35434" height="5.531010000000009" fill="black"/>
  </mask>
</defs>
<rect x="0" y="0" width="836" height="158" fill="#000000"/><clipPath id="p.0"><path d="m0 0l835.6982 0l0 157.63518l-835.6982 0l0 -157.63518z" clip-rule="nonzero"/></clipPath><g clip-path="url(#p.0)" mask="url(#crossbar-mask)"><path fill="#000000" fill-opacity="0.0" d="m0 0l835.6982 0l0 157.63518l-835.6982 0z" fill-rule="evenodd"/><path fill="#000000" fill-opacity="0.0" d="m1219.7213 -53.76344l-886.3622 0l0 245.6378l886.3622 0z" fill-rule="evenodd"/><path fill="#ffffff" d="m415.71848 135.74905q-18.109375 0 -33.046875 -8.484367q-14.921875 -8.5 -23.609375 -23.71875q-8.671875 -15.21875 -8.671875 -34.25q0 -19.046879 8.671875 -34.250004q8.6875 -15.21875 23.609375 -23.703125q14.9375 -8.5 33.046875 -8.5q18.28125 0 33.21875 8.5q14.9375 8.484374 23.515625 23.609375q8.59375 15.109375 8.59375 34.343754q0 19.21875 -8.59375 34.34375q-8.578125 15.125 -23.515625 23.625q-14.9375 8.484367 -33.21875 8.484367zm0 -14.749992q13.625 0 24.546875 -6.34375q10.921875 -6.34375 17.171875 -18.109375q6.25 -11.765625 6.25 -27.25q0 -15.687504 -6.25 -27.343754q-6.25 -11.671875 -17.078125 -18.015625q-10.828125 -6.34375 -24.640625 -6.34375q-13.8125 0 -24.640625 6.34375q-10.828125 6.34375 -17.078125 18.015625q-6.25 11.65625 -6.25 27.343754q0 15.484375 6.25 27.25q6.25 11.765625 17.171875 18.109375q10.921875 6.34375 24.546875 6.34375z" fill-rule="nonzero"/><path fill="#ffffff" d="m579.14905 46.749058l0 87.6875l-14.5625 0l0 -12.953117q-4.15625 6.7187424 -11.59375 10.484367q-7.4375 3.75 -16.40625 3.75q-10.234375 0 -18.40625 -4.234375q-8.1562805 -4.2499924 -12.8750305 -12.718742q-4.71875 -8.484375 -4.71875 -20.640625l0 -51.375004l14.4062805 0l0 49.45313q0 12.953125 6.5625 19.921875q6.5625 6.953125 17.921875 6.953125q11.671875 0 18.390625 -7.203125q6.71875 -7.203125 6.71875 -20.953125l0 -48.17188l14.5625 0zm104.6344 40.48438q0 4.15625 -0.46875 8.796875l-70.078125 0q0.796875 12.96875 8.875 20.25q8.078125 7.28125 19.59375 7.28125q9.453125 0 15.765625 -4.40625q6.3125 -4.40625 8.875 -11.765625l15.6875 0q-3.515625 12.640625 -14.078125 20.5625q-10.5625 7.9218674 -26.25 7.9218674q-12.46875 0 -22.3125 -5.59375q-9.84375 -5.6093674 -15.453125 -15.921867q-5.59375 -10.328125 -5.59375 -23.921875q0 -13.59375 5.4375 -23.828125q5.453125 -10.250004 15.28125 -15.765629q9.84375 -5.53125 22.640625 -5.53125q12.484375 0 22.078125 5.453125q9.609375 5.4375 14.796875 14.953129q5.203125 9.515625 5.203125 21.515625zm-15.03125 -3.03125q0 -8.328125 -3.6875 -14.328125q-3.671875 -6.000004 -10.0 -9.109379q-6.3125 -3.125 -14.0 -3.125q-11.03125 0 -18.796875 7.046879q-7.75 7.03125 -8.875 19.515625l55.359375 0zm65.2782 51.671867q-10.078125 0 -18.078125 -3.4375q-8.0 -3.4375 -12.640625 -9.593742q-4.640625 -6.171875 -5.125 -14.171875l15.046875 0q0.640625 6.5625 6.15625 10.734375q5.515625 4.15625 14.484375 4.15625q8.3125 0 13.109375 -3.671875q4.8125 -3.6875 4.8125 -9.296875q0 -5.75 -5.125 -8.546875q-5.125 -2.8125 -15.84375 -5.53125q-9.75 -2.5625 -15.921875 -5.203125q-6.15625 -2.640625 -10.5625 -7.828125q-4.390625 -5.203125 -4.390625 -13.6875q0 -6.718754 4.0 -12.312504q4.0 -5.609375 11.359375 -8.890625q7.359375 -3.28125 16.796875 -3.28125q14.5625 0 23.515625 7.359375q8.96875 7.359375 9.609375 20.171879l-14.5625 0q-0.484375 -6.890625 -5.53125 -11.046879q-5.03125 -4.15625 -13.515625 -4.15625q-7.828125 0 -12.46875 3.359375q-4.640625 3.3593788 -4.640625 8.796879q0 4.328125 2.796875 7.125q2.796875 2.796875 7.03125 4.484375q4.25 1.671875 11.765625 3.75q9.4375 2.5625 15.359375 5.046875q5.921875 2.46875 10.15625 7.4375q4.25 4.953125 4.40625 12.953125q0 7.203125 -4.0 12.96875q-4.0 5.7499924 -11.28125 9.031242q-7.28125 3.28125 -16.71875 3.28125zm70.23877 -77.125l0 51.687504q0 6.40625 2.71875 9.046875q2.71875 2.640625 9.4375 2.640625l10.71875 0l0 12.312492l-13.109375 0q-12.15625 0 -18.25 -5.59375q-6.078125 -5.6093674 -6.078125 -18.406242l0 -51.687504l-11.359375 0l0 -12.0l11.359375 0l0 -22.078125l14.5625 0l0 22.078125l22.875 0l0 12.0l-22.875 0z" fill-rule="nonzero"/><path fill="#ffffff" d="m3.6929133 29.178478l824.126 0l0 12.3149605l-824.126 0z" fill-rule="evenodd"/><path fill="#ffffff" d="m421.568 29.64834l0 104.34646l-12.314941 0l0 -104.34646z" fill-rule="evenodd"/><path fill="#ffffff" d="m421.98672 38.24686l69.95276 95.46457l-9.952759 7.275589l-69.95276 -95.46456z" fill-rule="evenodd"/><path fill="#000000" fill-opacity="0.0" d="m0.18732598 -28.27279l410.4882 0l0 213.32285l-410.4882 0z" fill-rule="evenodd"/><path fill="#ffffff" d="m39.26545 58.6397l0 51.6875q0 6.40625 2.71875 9.046875q2.71875 2.640625 9.4375 2.640625l10.71875 0l0 12.312492l-13.109375 0q-12.15625 0 -18.249998 -5.59375q-6.078125 -5.6093674 -6.078125 -18.406242l0 -51.6875l-11.359375 0l0 -12.0l11.359375 0l0 -22.078127l14.562498 0l0 22.078127l22.875 0l0 12.0l-22.875 0zm78.72441 77.12499q-12.328125 0 -22.328125 -5.59375q-10.0 -5.6093674 -15.6875 -15.921867q-5.671875 -10.328125 -5.671875 -23.921875q0 -13.4375 5.84375 -23.75q5.84375 -10.328125 15.921875 -15.84375q10.078125 -5.53125 22.5625 -5.53125q12.484383 0 22.562508 5.53125q10.078125 5.515625 15.90625 15.765625q5.84375 10.234375 5.84375 23.828125q0 13.59375 -6.0 23.921875q-6.0 10.3125 -16.234375 15.921867q-10.234375 5.59375 -22.718758 5.59375zm0 -12.796867q7.84375 0 14.718758 -3.671875q6.875 -3.6875 11.109375 -11.046875q4.25 -7.359375 4.25 -17.921875q0 -10.5625 -4.171875 -17.921875q-4.15625 -7.359375 -10.875 -10.953125q-6.7187576 -3.609375 -14.546883 -3.609375q-8.0 0 -14.640625 3.609375q-6.640625 3.59375 -10.640625 10.953125q-4.0 7.359375 -4.0 17.921875q0 10.71875 3.90625 18.078125q3.921875 7.359375 10.484375 10.96875q6.5625 3.59375 14.40625 3.59375zm169.60315 -77.921875q10.234375 0 18.234375 4.25q8.0 4.234375 12.640625 12.71875q4.640625 8.46875 4.640625 20.625l0 51.687492l-14.40625 0l0 -49.593742q0 -13.125 -6.484375 -20.078125q-6.46875 -6.96875 -17.515625 -6.96875q-11.359375 0 -18.078125 7.28125q-6.71875 7.28125 -6.71875 21.046875l0 48.312492l-14.3905945 0l0 -49.593742q0 -13.125 -6.484375 -20.078125q-6.484375 -6.96875 -17.515625 -6.96875q-11.375 0 -18.09375 7.28125q-6.71875 7.28125 -6.71875 21.046875l0 48.312492l-14.5625 0l0 -87.68749l14.5625 0l0 12.640625q4.328125 -6.875 11.609375 -10.546875q7.28125 -3.6875 16.078125 -3.6875q11.03125 0 19.515625 4.96875q8.484375 4.953125 12.6405945 14.546875q3.6875 -9.28125 12.15625 -14.390625q8.484375 -5.125 18.890625 -5.125zm63.98761 90.23437q-4.15625 0 -7.03125 -2.875q-2.875 -2.875 -2.875 -7.0312424q0 -4.171875 2.875 -7.046875q2.875 -2.875 7.03125 -2.875q4.0 0 6.796875 2.875q2.8125 2.875 2.8125 7.046875q0 4.1562424 -2.8125 7.0312424q-2.796875 2.875 -6.796875 2.875z" fill-rule="nonzero"/><path fill="#ffffff" d="m409.09955 38.247055l-46.078735 62.897636l9.952759 7.275589l46.078735 -62.897636z" fill-rule="evenodd"/><path fill="#ffffff" d="m24.803534 7.3285007l14.55118 0l0 19.622047l-14.55118 0z" fill-rule="evenodd"/><path fill="#ffffff" d="m789.85944 8.665601l14.5512085 0l0 19.622047l-14.5512085 0z" fill-rule="evenodd"/><path fill="#ffffff" d="m3.7821522 139.5261l824.126 0l0 12.314957l-824.126 0z" fill-rule="evenodd"/></g></svg>