<?xml version="1.0" encoding="UTF-8" standalone="no"?>
<!DOCTYPE svg PUBLIC "-//W3C//DTD SVG 1.1//EN"
 "http://www.w3.org/Graphics/SVG/1.1/DTD/svg11.dtd">
<!-- Generated by graphviz version 2.43.0 (0)
 -->
<!-- Title: Frequencies Pages: 1 -->
<svg width="681pt" height="438pt"
 viewBox="0.00 0.00 680.50 438.43" xmlns="http://www.w3.org/2000/svg" xmlns:xlink="http://www.w3.org/1999/xlink">
<g id="graph0" class="graph" transform="scale(1 1) rotate(0) translate(4 434.43)">
<title>Frequencies</title>
<polygon fill="#e8eaf6" stroke="transparent" points="-4,4 -4,-434.43 676.5,-434.43 676.5,4 -4,4"/>
<!-- A -->
<g id="node1" class="node">
<title>A</title>
<ellipse fill="#4f8dd6" stroke="black" cx="439.5" cy="-409.71" rx="16.64" ry="16.64"/>
<text text-anchor="middle" x="439.5" y="-406.91" font-family="Helvetica,sans-Serif" font-size="11.00" fill="#222222">A</text>
</g>
<!-- C -->
<g id="node2" class="node">
<title>C</title>
<ellipse fill="#e0a23b" stroke="black" cx="518.5" cy="-409.71" rx="16.64" ry="16.64"/>
<text text-anchor="middle" x="518.5" y="-406.91" font-family="Helvetica,sans-Serif" font-size="11.00" fill="#222222">C</text>
</g>
<!-- D -->
<g id="node3" class="node">
<title>D</title>
<ellipse fill="#5bc0eb" stroke="black" cx="377.5" cy="-409.71" rx="17.03" ry="17.03"/>
<text text-anchor="middle" x="377.5" y="-406.91" font-family="Helvetica,sans-Serif" font-size="11.00" fill="#222222">D</text>
</g>
<!-- E -->
<g id="node4" class="node">
<title>E</title>
<ellipse fill="#7e57c2" stroke="black" cx="432.5" cy="-18" rx="15.76" ry="15.76"/>
<text text-anchor="middle" x="432.5" y="-15.2" font-family="Helvetica,sans-Serif" font-size="11.00" fill="#ffffff">E</text>
</g>
<!-- En -->
<g id="node5" class="node">
<title>En</title>
<ellipse fill="#c0392b" stroke="black" cx="640.5" cy="-409.71" rx="20.93" ry="20.93"/>
<text text-anchor="middle" x="640.5" y="-406.91" font-family="Helvetica,sans-Serif" font-size="11.00" fill="#ffffff">En</text>
</g>
<!-- Ev -->
<g id="node6" class="node">
<title>Ev</title>
<ellipse fill="#e8542e" stroke="black" cx="580.5" cy="-409.71" rx="20.93" ry="20.93"/>
<text text-anchor="middle" x="580.5" y="-406.91" font-family="Helvetica,sans-Serif" font-size="11.00" fill="#ffffff">Ev</text>
</g>
<!-- I -->
<g id="node7" class="node">
<title>I</title>
<ellipse fill="#eceff1" stroke="black" cx="14.5" cy="-409.71" rx="14.5" ry="14.5"/>
<text text-anchor="middle" x="14.5" y="-406.91" font-family="Helvetica,sans-Serif" font-size="11.00" fill="#222222">I</text>
</g>
<!-- N -->
<g id="node8" class="node">
<title>N</title>
<ellipse fill="#2c2c34" stroke="black" cx="126.5" cy="-409.71" rx="17.03" ry="17.03"/>
<text text-anchor="middle" x="126.5" y="-406.91" font-family="Helvetica,sans-Serif" font-size="11.00" fill="#ffffff">N</text>
</g>
<!-- T -->
<g id="node9" class="node">
<title>T</title>
<ellipse fill="#27ae60" stroke="black" cx="256.5" cy="-409.71" rx="15.76" ry="15.76"/>
<text text-anchor="middle" x="256.5" y="-406.91" font-family="Helvetica,sans-Serif" font-size="11.00" fill="#ffffff">T</text>
</g>
<!-- Ignetium -->
<g id="node10" class="node">
<title>Ignetium</title>
<path fill="#7986cb" stroke="black" d="M601,-344C601,-344 560,-344 560,-344 554,-344 548,-338 548,-332 548,-332 548,-320 548,-320 548,-314 554,-308 560,-308 560,-308 601,-308 601,-308 607,-308 613,-314 613,-320 613,-320 613,-332 613,-332 613,-338 607,-344 601,-344"/>
<text text-anchor="middle" x="580.5" y="-329.2" font-family="Helvetica,sans-Serif" font-size="11.00" fill="#ffffff">Ignetium</text>
<text text-anchor="middle" x="580.5" y="-317.2" font-family="Helvetica,sans-Serif" font-size="11.00" fill="#ffffff">🔥 w4</text>
</g>
<!-- Ignetium&#45;&gt;C -->
<g id="edge3" class="edge">
<title>Ignetium&#45;&gt;C</title>
<path fill="none" stroke="#5c6bc0" d="M567.35,-344.33C556.9,-358.1 542.35,-377.28 531.85,-391.11"/>
<polygon fill="#5c6bc0" stroke="#5c6bc0" points="530.14,-389.9 528.18,-395.95 533.48,-392.44 530.14,-389.9"/>
</g>
<!-- Ignetium&#45;&gt;En -->
<g id="edge2" class="edge">
<title>Ignetium&#45;&gt;En</title>
<path fill="none" stroke="#5c6bc0" d="M593.22,-344.33C602.46,-356.9 615,-373.98 624.85,-387.39"/>
<polygon fill="#5c6bc0" stroke="#5c6bc0" points="623.37,-388.93 628.61,-392.52 626.75,-386.44 623.37,-388.93"/>
</g>
<!-- Ignetium&#45;&gt;Ev -->
<g id="edge1" class="edge">
<title>Ignetium&#45;&gt;Ev</title>
<path fill="none" stroke="#5c6bc0" d="M580.5,-344.33C580.5,-355.42 580.5,-370.02 580.5,-382.51"/>
<polygon fill="#5c6bc0" stroke="#5c6bc0" points="578.4,-382.82 580.5,-388.82 582.6,-382.82 578.4,-382.82"/>
<text text-anchor="middle" x="585.5" y="-364.6" font-family="Times,serif" font-size="8.00" fill="#3949ab">x2</text>
</g>
<!-- Crallax -->
<g id="node11" class="node">
<title>Crallax</title>
<path fill="#7986cb" stroke="black" d="M470,-344C470,-344 439,-344 439,-344 433,-344 427,-338 427,-332 427,-332 427,-320 427,-320 427,-314 433,-308 439,-308 439,-308 470,-308 470,-308 476,-308 482,-314 482,-320 482,-320 482,-332 482,-332 482,-338 476,-344 470,-344"/>
<text text-anchor="middle" x="454.5" y="-329.2" font-family="Helvetica,sans-Serif" font-size="11.00" fill="#ffffff">Crallax</text>
<text text-anchor="middle" x="454.5" y="-317.2" font-family="Helvetica,sans-Serif" font-size="11.00" fill="#ffffff">✦ w4</text>
</g>
<!-- Crallax&#45;&gt;A -->
<g id="edge5" class="edge">
<title>Crallax&#45;&gt;A</title>
<path fill="none" stroke="#5c6bc0" d="M451.32,-344.33C449.03,-356.81 445.92,-373.73 443.47,-387.1"/>
<polygon fill="#5c6bc0" stroke="#5c6bc0" points="441.34,-387.06 442.32,-393.34 445.47,-387.82 441.34,-387.06"/>
</g>
<!-- Crallax&#45;&gt;C -->
<g id="edge6" class="edge">
<title>Crallax&#45;&gt;C</title>
<path fill="none" stroke="#5c6bc0" d="M468.07,-344.33C478.92,-358.18 494.06,-377.51 504.91,-391.37"/>
<polygon fill="#5c6bc0" stroke="#5c6bc0" points="503.35,-392.77 508.7,-396.2 506.66,-390.19 503.35,-392.77"/>
</g>
<!-- Crallax&#45;&gt;D -->
<g id="edge4" class="edge">
<title>Crallax&#45;&gt;D</title>
<path fill="none" stroke="#5c6bc0" d="M438.17,-344.33C424.92,-358.39 406.36,-378.08 393.27,-391.98"/>
<polygon fill="#5c6bc0" stroke="#5c6bc0" points="391.64,-390.65 389.05,-396.45 394.7,-393.53 391.64,-390.65"/>
<text text-anchor="middle" x="426.5" y="-364.6" font-family="Times,serif" font-size="8.00" fill="#3949ab">x2</text>
</g>
<!-- Yonescope -->
<g id="node12" class="node">
<title>Yonescope</title>
<path fill="#7986cb" stroke="black" d="M197.5,-344C197.5,-344 147.5,-344 147.5,-344 141.5,-344 135.5,-338 135.5,-332 135.5,-332 135.5,-320 135.5,-320 135.5,-314 141.5,-308 147.5,-308 147.5,-308 197.5,-308 197.5,-308 203.5,-308 209.5,-314 209.5,-320 209.5,-320 209.5,-332 209.5,-332 209.5,-338 203.5,-344 197.5,-344"/>
<text text-anchor="middle" x="172.5" y="-329.2" font-family="Helvetica,sans-Serif" font-size="11.00" fill="#ffffff">Yonescope</text>
<text text-anchor="middle" x="172.5" y="-317.2" font-family="Helvetica,sans-Serif" font-size="11.00" fill="#ffffff">☾ w4</text>
</g>
<!-- Yonescope&#45;&gt;I -->
<g id="edge7" class="edge">
<title>Yonescope&#45;&gt;I</title>
<path fill="none" stroke="#5c6bc0" d="M139.38,-344.13C106.9,-360.92 58.61,-385.9 32.62,-399.34"/>
<polygon fill="#5c6bc0" stroke="#5c6bc0" points="31.48,-397.57 27.12,-402.19 33.41,-401.3 31.48,-397.57"/>
</g>
<!-- Yonescope&#45;&gt;N -->
<g id="edge8" class="edge">
<title>Yonescope&#45;&gt;N</title>
<path fill="none" stroke="#5c6bc0" d="M162.74,-344.33C155.41,-357.37 145.34,-375.25 137.68,-388.86"/>
<polygon fill="#5c6bc0" stroke="#5c6bc0" points="135.67,-388.15 134.56,-394.4 139.33,-390.21 135.67,-388.15"/>
<text text-anchor="middle" x="157.5" y="-364.6" font-family="Times,serif" font-size="8.00" fill="#3949ab">x2</text>
</g>
<!-- Yonescope&#45;&gt;T -->
<g id="edge9" class="edge">
<title>Yonescope&#45;&gt;T</title>
<path fill="none" stroke="#5c6bc0" d="M190.31,-344.33C205.2,-358.81 226.23,-379.27 240.56,-393.21"/>
<polygon fill="#5c6bc0" stroke="#5c6bc0" points="239.38,-394.99 245.15,-397.67 242.31,-391.98 239.38,-394.99"/>
</g>
<!-- Chrysipil -->
<g id="node13" class="node">
<title>Chrysipil</title>
<path fill="#7986cb" stroke="black" d="M390.5,-344C390.5,-344 350.5,-344 350.5,-344 344.5,-344 338.5,-338 338.5,-332 338.5,-332 338.5,-320 338.5,-320 338.5,-314 344.5,-308 350.5,-308 350.5,-308 390.5,-308 390.5,-308 396.5,-308 402.5,-314 402.5,-320 402.5,-320 402.5,-332 402.5,-332 402.5,-338 396.5,-344 390.5,-344"/>
<text text-anchor="middle" x="370.5" y="-329.2" font-family="Helvetica,sans-Serif" font-size="11.00" fill="#ffffff">Chrysipil</text>
<text text-anchor="middle" x="370.5" y="-317.2" font-family="Helvetica,sans-Serif" font-size="11.00" fill="#ffffff">◈ w4</text>
</g>
<!-- Chrysipil&#45;&gt;A -->
<g id="edge10" class="edge">
<title>Chrysipil&#45;&gt;A</title>
<path fill="none" stroke="#5c6bc0" d="M381.61,-344.23C387.24,-352.57 394.38,-362.58 401.5,-371 408.13,-378.85 416.11,-386.95 423.05,-393.62"/>
<polygon fill="#5c6bc0" stroke="#5c6bc0" points="421.86,-395.38 427.66,-397.99 424.75,-392.33 421.86,-395.38"/>
<text text-anchor="middle" x="406.5" y="-364.6" font-family="Times,serif" font-size="8.00" fill="#3949ab">x2</text>
</g>
<!-- Chrysipil&#45;&gt;D -->
<g id="edge11" class="edge">
<title>Chrysipil&#45;&gt;D</title>
<path fill="none" stroke="#5c6bc0" d="M371.98,-344.33C373.03,-356.49 374.43,-372.86 375.56,-386.06"/>
<polygon fill="#5c6bc0" stroke="#5c6bc0" points="373.48,-386.45 376.09,-392.25 377.67,-386.09 373.48,-386.45"/>
</g>
<!-- Chrysipil&#45;&gt;T -->
<g id="edge12" class="edge">
<title>Chrysipil&#45;&gt;T</title>
<path fill="none" stroke="#5c6bc0" d="M346.6,-344.13C325,-359.62 293.69,-382.06 274.24,-396"/>
<polygon fill="#5c6bc0" stroke="#5c6bc0" points="272.74,-394.49 269.08,-399.69 275.18,-397.91 272.74,-394.49"/>
</g>
<!-- Letchettin -->
<g id="node14" class="node">
<title>Letchettin</title>
<path fill="#5c6bc0" stroke="black" d="M542.5,-263C542.5,-263 494.5,-263 494.5,-263 488.5,-263 482.5,-257 482.5,-251 482.5,-251 482.5,-239 482.5,-239 482.5,-233 488.5,-227 494.5,-227 494.5,-227 542.5,-227 542.5,-227 548.5,-227 554.5,-233 554.5,-239 554.5,-239 554.5,-251 554.5,-251 554.5,-257 548.5,-263 542.5,-263"/>
<text text-anchor="middle" x="518.5" y="-248.2" font-family="Helvetica,sans-Serif" font-size="11.00" fill="#ffffff">Letchettin</text>
<text text-anchor="middle" x="518.5" y="-236.2" font-family="Helvetica,sans-Serif" font-size="11.00" fill="#ffffff">☗ w10</text>
</g>
<!-- Letchettin&#45;&gt;C -->
<g id="edge15" class="edge">
<title>Letchettin&#45;&gt;C</title>
<path fill="none" stroke="#5c6bc0" d="M518.5,-263.11C518.5,-292.79 518.5,-353.79 518.5,-386.63"/>
<polygon fill="#5c6bc0" stroke="#5c6bc0" points="516.4,-386.8 518.5,-392.8 520.6,-386.8 516.4,-386.8"/>
<text text-anchor="middle" x="523.5" y="-324.1" font-family="Times,serif" font-size="8.00" fill="#3949ab">x2</text>
</g>
<!-- Letchettin&#45;&gt;Ignetium -->
<g id="edge14" class="edge">
<title>Letchettin&#45;&gt;Ignetium</title>
<path fill="none" stroke="#5c6bc0" d="M531.95,-263.14C541.13,-274.84 553.38,-290.44 563.27,-303.05"/>
<polygon fill="#5c6bc0" stroke="#5c6bc0" points="561.72,-304.47 567.07,-307.89 565.02,-301.88 561.72,-304.47"/>
</g>
<!-- Letchettin&#45;&gt;Yonescope -->
<g id="edge13" class="edge">
<title>Letchettin&#45;&gt;Yonescope</title>
<path fill="none" stroke="#5c6bc0" d="M482.41,-256.32C448.9,-265.71 397.54,-279.66 352.5,-290 306.01,-300.67 252.28,-310.84 215.71,-317.44"/>
<polygon fill="#5c6bc0" stroke="#5c6bc0" points="215.07,-315.42 209.54,-318.55 215.82,-319.55 215.07,-315.42"/>
</g>
<!-- Silentix -->
<g id="node15" class="node">
<title>Silentix</title>
<path fill="#5c6bc0" stroke="black" d="M138,-263C138,-263 105,-263 105,-263 99,-263 93,-257 93,-251 93,-251 93,-239 93,-239 93,-233 99,-227 105,-227 105,-227 138,-227 138,-227 144,-227 150,-233 150,-239 150,-239 150,-251 150,-251 150,-257 144,-263 138,-263"/>
<text text-anchor="middle" x="121.5" y="-248.2" font-family="Helvetica,sans-Serif" font-size="11.00" fill="#ffffff">Silentix</text>
<text text-anchor="middle" x="121.5" y="-236.2" font-family="Helvetica,sans-Serif" font-size="11.00" fill="#ffffff">🔔 w13</text>
</g>
<!-- Silentix&#45;&gt;I -->
<g id="edge17" class="edge">
<title>Silentix&#45;&gt;I</title>
<path fill="none" stroke="#5c6bc0" d="M96.82,-263.12C70.21,-283.24 29.39,-319.35 12.5,-362 9.08,-370.62 9.12,-380.86 10.2,-389.54"/>
<polygon fill="#5c6bc0" stroke="#5c6bc0" points="8.14,-389.95 11.14,-395.55 12.29,-389.3 8.14,-389.95"/>
</g>
<!-- Silentix&#45;&gt;Crallax -->
<g id="edge16" class="edge">
<title>Silentix&#45;&gt;Crallax</title>
<path fill="none" stroke="#5c6bc0" d="M150.27,-252.96C164.44,-256.25 181.81,-260.09 197.5,-263 251.39,-272.99 265.96,-269.25 319.5,-281 361.12,-290.13 371.2,-294.15 411.5,-308 414.63,-309.08 417.87,-310.25 421.1,-311.45"/>
<polygon fill="#5c6bc0" stroke="#5c6bc0" points="420.53,-313.48 426.88,-313.65 422.02,-309.56 420.53,-313.48"/>
<text text-anchor="middle" x="360.5" y="-283.6" font-family="Times,serif" font-size="8.00" fill="#3949ab">x3</text>
</g>
<!-- Draconil -->
<g id="node16" class="node">
<title>Draconil</title>
<path fill="#5c6bc0" stroke="black" d="M660.5,-263C660.5,-263 622.5,-263 622.5,-263 616.5,-263 610.5,-257 610.5,-251 610.5,-251 610.5,-239 610.5,-239 610.5,-233 616.5,-227 622.5,-227 622.5,-227 660.5,-227 660.5,-227 666.5,-227 672.5,-233 672.5,-239 672.5,-239 672.5,-251 672.5,-251 672.5,-257 666.5,-263 660.5,-263"/>
<text text-anchor="middle" x="641.5" y="-248.2" font-family="Helvetica,sans-Serif" font-size="11.00" fill="#ffffff">Draconil</text>
<text text-anchor="middle" x="641.5" y="-236.2" font-family="Helvetica,sans-Serif" font-size="11.00" fill="#ffffff">🦎 w13</text>
</g>
<!-- Draconil&#45;&gt;En -->
<g id="edge19" class="edge">
<title>Draconil&#45;&gt;En</title>
<path fill="none" stroke="#5c6bc0" d="M641.39,-263.11C641.22,-291.56 640.87,-348.81 640.66,-382.42"/>
<polygon fill="#5c6bc0" stroke="#5c6bc0" points="638.56,-382.8 640.62,-388.82 642.76,-382.83 638.56,-382.8"/>
</g>
<!-- Draconil&#45;&gt;Ignetium -->
<g id="edge18" class="edge">
<title>Draconil&#45;&gt;Ignetium</title>
<path fill="none" stroke="#5c6bc0" d="M628.26,-263.14C619.23,-274.84 607.19,-290.44 597.45,-303.05"/>
<polygon fill="#5c6bc0" stroke="#5c6bc0" points="595.72,-301.86 593.71,-307.89 599.04,-304.43 595.72,-301.86"/>
<text text-anchor="middle" x="617.5" y="-283.6" font-family="Times,serif" font-size="8.00" fill="#3949ab">x2</text>
</g>
<!-- Draconil&#45;&gt;Crallax -->
<g id="edge20" class="edge">
<title>Draconil&#45;&gt;Crallax</title>
<path fill="none" stroke="#5c6bc0" d="M610.2,-259.22C576.39,-273.51 522.72,-296.18 488.05,-310.82"/>
<polygon fill="#5c6bc0" stroke="#5c6bc0" points="486.95,-309.01 482.24,-313.28 488.58,-312.88 486.95,-309.01"/>
</g>
<!-- Myddenic -->
<g id="node17" class="node">
<title>Myddenic</title>
<path fill="#5c6bc0" stroke="black" d="M264,-263C264,-263 219,-263 219,-263 213,-263 207,-257 207,-251 207,-251 207,-239 207,-239 207,-233 213,-227 219,-227 219,-227 264,-227 264,-227 270,-227 276,-233 276,-239 276,-239 276,-251 276,-251 276,-257 270,-263 264,-263"/>
<text text-anchor="middle" x="241.5" y="-248.2" font-family="Helvetica,sans-Serif" font-size="11.00" fill="#ffffff">Myddenic</text>
<text text-anchor="middle" x="241.5" y="-236.2" font-family="Helvetica,sans-Serif" font-size="11.00" fill="#ffffff">⌗ w13</text>
</g>
<!-- Myddenic&#45;&gt;T -->
<g id="edge21" class="edge">
<title>Myddenic&#45;&gt;T</title>
<path fill="none" stroke="#5c6bc0" d="M243.08,-263.11C245.84,-293.09 251.55,-355.05 254.56,-387.63"/>
<polygon fill="#5c6bc0" stroke="#5c6bc0" points="252.48,-387.96 255.12,-393.74 256.66,-387.57 252.48,-387.96"/>
</g>
<!-- Myddenic&#45;&gt;Yonescope -->
<g id="edge23" class="edge">
<title>Myddenic&#45;&gt;Yonescope</title>
<path fill="none" stroke="#5c6bc0" d="M226.53,-263.14C216.31,-274.84 202.69,-290.44 191.68,-303.05"/>
<polygon fill="#5c6bc0" stroke="#5c6bc0" points="189.81,-301.99 187.44,-307.89 192.97,-304.75 189.81,-301.99"/>
</g>
<!-- Myddenic&#45;&gt;Chrysipil -->
<g id="edge22" class="edge">
<title>Myddenic&#45;&gt;Chrysipil</title>
<path fill="none" stroke="#5c6bc0" d="M267.13,-263.04C279.78,-271.34 295.33,-281.36 309.5,-290 317.46,-294.86 326.1,-299.93 334.31,-304.66"/>
<polygon fill="#5c6bc0" stroke="#5c6bc0" points="333.66,-306.71 339.91,-307.87 335.75,-303.06 333.66,-306.71"/>
<text text-anchor="middle" x="314.5" y="-283.6" font-family="Times,serif" font-size="8.00" fill="#3949ab">x2</text>
</g>
<!-- Persimmious -->
<g id="node18" class="node">
<title>Persimmious</title>
<path fill="#3949ab" stroke="black" d="M477.5,-182C477.5,-182 415.5,-182 415.5,-182 409.5,-182 403.5,-176 403.5,-170 403.5,-170 403.5,-158 403.5,-158 403.5,-152 409.5,-146 415.5,-146 415.5,-146 477.5,-146 477.5,-146 483.5,-146 489.5,-152 489.5,-158 489.5,-158 489.5,-170 489.5,-170 489.5,-176 483.5,-182 477.5,-182"/>
<text text-anchor="middle" x="446.5" y="-167.2" font-family="Helvetica,sans-Serif" font-size="11.00" fill="#ffffff">Persimmious</text>
<text text-anchor="middle" x="446.5" y="-155.2" font-family="Helvetica,sans-Serif" font-size="11.00" fill="#ffffff">❀ w18</text>
</g>
<!-- Persimmious&#45;&gt;Chrysipil -->
<g id="edge25" class="edge">
<title>Persimmious&#45;&gt;Chrysipil</title>
<path fill="none" stroke="#5c6bc0" d="M442.79,-182.12C436.89,-207.11 423.78,-254.47 402.5,-290 399.76,-294.57 396.37,-299.06 392.82,-303.23"/>
<polygon fill="#5c6bc0" stroke="#5c6bc0" points="391.03,-302.08 388.61,-307.96 394.17,-304.87 391.03,-302.08"/>
<text text-anchor="middle" x="435.5" y="-243.1" font-family="Times,serif" font-size="8.00" fill="#3949ab">x2</text>
</g>
<!-- Persimmious&#45;&gt;Letchettin -->
<g id="edge24" class="edge">
<title>Persimmious&#45;&gt;Letchettin</title>
<path fill="none" stroke="#5c6bc0" d="M462.12,-182.14C472.88,-193.94 487.25,-209.72 498.8,-222.38"/>
<polygon fill="#5c6bc0" stroke="#5c6bc0" points="497.31,-223.87 502.91,-226.89 500.42,-221.04 497.31,-223.87"/>
</g>
<!-- Albutian -->
<g id="node19" class="node">
<title>Albutian</title>
<path fill="#3949ab" stroke="black" d="M320.5,-182C320.5,-182 282.5,-182 282.5,-182 276.5,-182 270.5,-176 270.5,-170 270.5,-170 270.5,-158 270.5,-158 270.5,-152 276.5,-146 282.5,-146 282.5,-146 320.5,-146 320.5,-146 326.5,-146 332.5,-152 332.5,-158 332.5,-158 332.5,-170 332.5,-170 332.5,-176 326.5,-182 320.5,-182"/>
<text text-anchor="middle" x="301.5" y="-167.2" font-family="Helvetica,sans-Serif" font-size="11.00" fill="#ffffff">Albutian</text>
<text text-anchor="middle" x="301.5" y="-155.2" font-family="Helvetica,sans-Serif" font-size="11.00" fill="#ffffff">⚗ w27</text>
</g>
<!-- Albutian&#45;&gt;T -->
<g id="edge27" class="edge">
<title>Albutian&#45;&gt;T</title>
<path fill="none" stroke="#5c6bc0" d="M298.64,-182.01C295.34,-201.57 289.69,-234.63 284.5,-263 276.36,-307.53 266.2,-359.58 260.63,-387.85"/>
<polygon fill="#5c6bc0" stroke="#5c6bc0" points="258.55,-387.54 259.45,-393.84 262.67,-388.36 258.55,-387.54"/>
</g>
<!-- Albutian&#45;&gt;Myddenic -->
<g id="edge26" class="edge">
<title>Albutian&#45;&gt;Myddenic</title>
<path fill="none" stroke="#5c6bc0" d="M288.48,-182.14C279.6,-193.84 267.75,-209.44 258.17,-222.05"/>
<polygon fill="#5c6bc0" stroke="#5c6bc0" points="256.45,-220.84 254.49,-226.89 259.8,-223.38 256.45,-220.84"/>
<text text-anchor="middle" x="278.5" y="-202.6" font-family="Times,serif" font-size="8.00" fill="#3949ab">x2</text>
</g>
<!-- Korastic -->
<g id="node20" class="node">
<title>Korastic</title>
<path fill="#3949ab" stroke="black" d="M557,-182C557,-182 520,-182 520,-182 514,-182 508,-176 508,-170 508,-170 508,-158 508,-158 508,-152 514,-146 520,-146 520,-146 557,-146 557,-146 563,-146 569,-152 569,-158 569,-158 569,-170 569,-170 569,-176 563,-182 557,-182"/>
<text text-anchor="middle" x="538.5" y="-167.2" font-family="Helvetica,sans-Serif" font-size="11.00" fill="#ffffff">Korastic</text>
<text text-anchor="middle" x="538.5" y="-155.2" font-family="Helvetica,sans-Serif" font-size="11.00" fill="#ffffff">☄ w21</text>
</g>
<!-- Korastic&#45;&gt;Ignetium -->
<g id="edge29" class="edge">
<title>Korastic&#45;&gt;Ignetium</title>
<path fill="none" stroke="#5c6bc0" d="M546.51,-182.03C551.99,-194.3 559.05,-211.37 563.5,-227 570.63,-252.03 575.26,-281.55 577.86,-301.6"/>
<polygon fill="#5c6bc0" stroke="#5c6bc0" points="575.8,-302.07 578.63,-307.76 579.97,-301.54 575.8,-302.07"/>
</g>
<!-- Korastic&#45;&gt;Crallax -->
<g id="edge30" class="edge">
<title>Korastic&#45;&gt;Crallax</title>
<path fill="none" stroke="#5c6bc0" d="M514.15,-182.09C500.09,-193.26 483.3,-209.07 473.5,-227 460.77,-250.29 456.47,-280.79 455.07,-301.54"/>
<polygon fill="#5c6bc0" stroke="#5c6bc0" points="452.97,-301.53 454.72,-307.64 457.16,-301.77 452.97,-301.53"/>
</g>
<!-- Korastic&#45;&gt;Draconil -->
<g id="edge28" class="edge">
<title>Korastic&#45;&gt;Draconil</title>
<path fill="none" stroke="#5c6bc0" d="M569.18,-181.71C578.26,-187.13 588.04,-193.45 596.5,-200 605.09,-206.64 613.79,-214.76 621.22,-222.21"/>
<polygon fill="#5c6bc0" stroke="#5c6bc0" points="619.97,-223.93 625.67,-226.73 622.96,-220.98 619.97,-223.93"/>
</g>
<!-- Lythillious -->
<g id="node21" class="node">
<title>Lythillious</title>
<path fill="#3949ab" stroke="black" d="M124,-182C124,-182 77,-182 77,-182 71,-182 65,-176 65,-170 65,-170 65,-158 65,-158 65,-152 71,-146 77,-146 77,-146 124,-146 124,-146 130,-146 136,-152 136,-158 136,-158 136,-170 136,-170 136,-176 130,-182 124,-182"/>
<text text-anchor="middle" x="100.5" y="-167.2" font-family="Helvetica,sans-Serif" font-size="11.00" fill="#ffffff">Lythillious</text>
<text text-anchor="middle" x="100.5" y="-155.2" font-family="Helvetica,sans-Serif" font-size="11.00" fill="#ffffff">🗡 w18</text>
</g>
<!-- Lythillious&#45;&gt;N -->
<g id="edge33" class="edge">
<title>Lythillious&#45;&gt;N</title>
<path fill="none" stroke="#5c6bc0" d="M86.97,-182.35C83.37,-187.74 79.83,-193.89 77.5,-200 67.51,-226.22 68.63,-235.37 73.5,-263 81.7,-309.53 103.57,-360.75 116.51,-388.36"/>
<polygon fill="#5c6bc0" stroke="#5c6bc0" points="114.66,-389.36 119.13,-393.88 118.45,-387.56 114.66,-389.36"/>
</g>
<!-- Lythillious&#45;&gt;Yonescope -->
<g id="edge32" class="edge">
<title>Lythillious&#45;&gt;Yonescope</title>
<path fill="none" stroke="#5c6bc0" d="M91.26,-182.3C81.73,-202.71 69.99,-237.13 83.5,-263 93.45,-282.06 112.23,-296.45 129.99,-306.55"/>
<polygon fill="#5c6bc0" stroke="#5c6bc0" points="129.18,-308.5 135.45,-309.55 131.2,-304.82 129.18,-308.5"/>
</g>
<!-- Lythillious&#45;&gt;Silentix -->
<g id="edge31" class="edge">
<title>Lythillious&#45;&gt;Silentix</title>
<path fill="none" stroke="#5c6bc0" d="M105.06,-182.14C108.08,-193.53 112.09,-208.61 115.4,-221.04"/>
<polygon fill="#5c6bc0" stroke="#5c6bc0" points="113.38,-221.63 116.95,-226.89 117.44,-220.55 113.38,-221.63"/>
</g>
<!-- Malvesian -->
<g id="node22" class="node">
<title>Malvesian</title>
<path fill="#3949ab" stroke="black" d="M149.5,-109C149.5,-109 101.5,-109 101.5,-109 95.5,-109 89.5,-103 89.5,-97 89.5,-97 89.5,-85 89.5,-85 89.5,-79 95.5,-73 101.5,-73 101.5,-73 149.5,-73 149.5,-73 155.5,-73 161.5,-79 161.5,-85 161.5,-85 161.5,-97 161.5,-97 161.5,-103 155.5,-109 149.5,-109"/>
<text text-anchor="middle" x="125.5" y="-94.2" font-family="Helvetica,sans-Serif" font-size="11.00" fill="#ffffff">Malvesian</text>
<text text-anchor="middle" x="125.5" y="-82.2" font-family="Helvetica,sans-Serif" font-size="11.00" fill="#ffffff">❖ w45</text>
</g>
<!-- Malvesian&#45;&gt;Albutian -->
<g id="edge34" class="edge">
<title>Malvesian&#45;&gt;Albutian</title>
<path fill="none" stroke="#5c6bc0" d="M161.54,-106.54C191.52,-118.63 234.04,-135.79 264.33,-148.01"/>
<polygon fill="#5c6bc0" stroke="#5c6bc0" points="263.87,-150.08 270.22,-150.38 265.44,-146.19 263.87,-150.08"/>
</g>
<!-- Malvesian&#45;&gt;Lythillious -->
<g id="edge35" class="edge">
<title>Malvesian&#45;&gt;Lythillious</title>
<path fill="none" stroke="#5c6bc0" d="M119.45,-109.19C116.16,-118.52 112.06,-130.17 108.51,-140.25"/>
<polygon fill="#5c6bc0" stroke="#5c6bc0" points="106.51,-139.61 106.5,-145.97 110.47,-141.01 106.51,-139.61"/>
</g>
<!-- Laternical -->
<g id="node23" class="node">
<title>Laternical</title>
<path fill="#3949ab" stroke="black" d="M473,-109C473,-109 426,-109 426,-109 420,-109 414,-103 414,-97 414,-97 414,-85 414,-85 414,-79 420,-73 426,-73 426,-73 473,-73 473,-73 479,-73 485,-79 485,-85 485,-85 485,-97 485,-97 485,-103 479,-109 473,-109"/>
<text text-anchor="middle" x="449.5" y="-94.2" font-family="Helvetica,sans-Serif" font-size="11.00" fill="#ffffff">Laternical</text>
<text text-anchor="middle" x="449.5" y="-82.2" font-family="Helvetica,sans-Serif" font-size="11.00" fill="#ffffff">🏮 w39</text>
</g>
<!-- Laternical&#45;&gt;Persimmious -->
<g id="edge36" class="edge">
<title>Laternical&#45;&gt;Persimmious</title>
<path fill="none" stroke="#5c6bc0" d="M448.77,-109.19C448.38,-118.43 447.9,-129.96 447.47,-139.97"/>
<polygon fill="#5c6bc0" stroke="#5c6bc0" points="445.37,-139.89 447.22,-145.97 449.57,-140.07 445.37,-139.89"/>
</g>
<!-- Laternical&#45;&gt;Korastic -->
<g id="edge37" class="edge">
<title>Laternical&#45;&gt;Korastic</title>
<path fill="none" stroke="#5c6bc0" d="M471.04,-109.19C483.51,-119.13 499.28,-131.71 512.44,-142.21"/>
<polygon fill="#5c6bc0" stroke="#5c6bc0" points="511.15,-143.87 517.15,-145.97 513.77,-140.59 511.15,-143.87"/>
</g>
<!-- Thurmistic -->
<g id="node24" class="node">
<title>Thurmistic</title>
<path fill="#3949ab" stroke="black" d="M299.5,-109C299.5,-109 249.5,-109 249.5,-109 243.5,-109 237.5,-103 237.5,-97 237.5,-97 237.5,-85 237.5,-85 237.5,-79 243.5,-73 249.5,-73 249.5,-73 299.5,-73 299.5,-73 305.5,-73 311.5,-79 311.5,-85 311.5,-85 311.5,-97 311.5,-97 311.5,-103 305.5,-109 299.5,-109"/>
<text text-anchor="middle" x="274.5" y="-94.2" font-family="Helvetica,sans-Serif" font-size="11.00" fill="#ffffff">Thurmistic</text>
<text text-anchor="middle" x="274.5" y="-82.2" font-family="Helvetica,sans-Serif" font-size="11.00" fill="#ffffff">⚡ w25</text>
</g>
<!-- Thurmistic&#45;&gt;Yonescope -->
<g id="edge38" class="edge">
<title>Thurmistic&#45;&gt;Yonescope</title>
<path fill="none" stroke="#5c6bc0" d="M262.7,-109.14C246.03,-134.06 215.6,-182.22 197.5,-227 187.48,-251.79 180.54,-281.75 176.55,-301.97"/>
<polygon fill="#5c6bc0" stroke="#5c6bc0" points="174.48,-301.63 175.41,-307.92 178.61,-302.42 174.48,-301.63"/>
</g>
<!-- Thurmistic&#45;&gt;Korastic -->
<g id="edge39" class="edge">
<title>Thurmistic&#45;&gt;Korastic</title>
<path fill="none" stroke="#5c6bc0" d="M311.75,-106.3C314.69,-107.26 317.64,-108.18 320.5,-109 398.17,-131.29 421.39,-121.86 498.5,-146 499.63,-146.36 500.78,-146.73 501.93,-147.12"/>
<polygon fill="#5c6bc0" stroke="#5c6bc0" points="501.36,-149.15 507.72,-149.21 502.78,-145.2 501.36,-149.15"/>
</g>
<!-- Ontoligin -->
<g id="node25" class="node">
<title>Ontoligin</title>
<path fill="#3949ab" stroke="black" d="M383.5,-109C383.5,-109 341.5,-109 341.5,-109 335.5,-109 329.5,-103 329.5,-97 329.5,-97 329.5,-85 329.5,-85 329.5,-79 335.5,-73 341.5,-73 341.5,-73 383.5,-73 383.5,-73 389.5,-73 395.5,-79 395.5,-85 395.5,-85 395.5,-97 395.5,-97 395.5,-103 389.5,-109 383.5,-109"/>
<text text-anchor="middle" x="362.5" y="-94.2" font-family="Helvetica,sans-Serif" font-size="11.00" fill="#ffffff">Ontoligin</text>
<text text-anchor="middle" x="362.5" y="-82.2" font-family="Helvetica,sans-Serif" font-size="11.00" fill="#ffffff">📜 w31</text>
</g>
<!-- Ontoligin&#45;&gt;Chrysipil -->
<g id="edge41" class="edge">
<title>Ontoligin&#45;&gt;Chrysipil</title>
<path fill="none" stroke="#5c6bc0" d="M363.22,-109.2C364.59,-142.4 367.61,-217.66 369.5,-281 369.7,-287.64 369.88,-294.85 370.03,-301.48"/>
<polygon fill="#5c6bc0" stroke="#5c6bc0" points="367.94,-301.91 370.17,-307.86 372.14,-301.82 367.94,-301.91"/>
</g>
<!-- Ontoligin&#45;&gt;Albutian -->
<g id="edge40" class="edge">
<title>Ontoligin&#45;&gt;Albutian</title>
<path fill="none" stroke="#5c6bc0" d="M347.73,-109.19C339.42,-118.87 328.95,-131.05 320.08,-141.37"/>
<polygon fill="#5c6bc0" stroke="#5c6bc0" points="318.45,-140.05 316.13,-145.97 321.63,-142.79 318.45,-140.05"/>
</g>
<!-- Saspacian -->
<g id="node26" class="node">
<title>Saspacian</title>
<path fill="#3949ab" stroke="black" d="M386.5,-36C386.5,-36 338.5,-36 338.5,-36 332.5,-36 326.5,-30 326.5,-24 326.5,-24 326.5,-12 326.5,-12 326.5,-6 332.5,0 338.5,0 338.5,0 386.5,0 386.5,0 392.5,0 398.5,-6 398.5,-12 398.5,-12 398.5,-24 398.5,-24 398.5,-30 392.5,-36 386.5,-36"/>
<text text-anchor="middle" x="362.5" y="-21.2" font-family="Helvetica,sans-Serif" font-size="11.00" fill="#ffffff">Saspacian</text>
<text text-anchor="middle" x="362.5" y="-9.2" font-family="Helvetica,sans-Serif" font-size="11.00" fill="#ffffff">🪐 w95</text>
</g>
<!-- Saspacian&#45;&gt;Laternical -->
<g id="edge42" class="edge">
<title>Saspacian&#45;&gt;Laternical</title>
<path fill="none" stroke="#5c6bc0" d="M383.56,-36.19C395.64,-46.04 410.89,-58.49 423.68,-68.93"/>
<polygon fill="#5c6bc0" stroke="#5c6bc0" points="422.66,-70.8 428.63,-72.97 425.31,-67.55 422.66,-70.8"/>
</g>
<!-- Saspacian&#45;&gt;Thurmistic -->
<g id="edge43" class="edge">
<title>Saspacian&#45;&gt;Thurmistic</title>
<path fill="none" stroke="#5c6bc0" d="M341.2,-36.19C328.98,-46.04 313.56,-58.49 300.61,-68.93"/>
<polygon fill="#5c6bc0" stroke="#5c6bc0" points="298.96,-67.57 295.61,-72.97 301.59,-70.84 298.96,-67.57"/>
</g>
<!-- Saspacian&#45;&gt;Ontoligin -->
<g id="edge44" class="edge">
<title>Saspacian&#45;&gt;Ontoligin</title>
<path fill="none" stroke="#5c6bc0" d="M362.5,-36.19C362.5,-45.43 362.5,-56.96 362.5,-66.97"/>
<polygon fill="#5c6bc0" stroke="#5c6bc0" points="360.4,-66.97 362.5,-72.97 364.6,-66.97 360.4,-66.97"/>
</g>
</g>
</svg>
